<svg width="77" height="72" viewBox="0 0 77 72" fill="none" xmlns="http://www.w3.org/2000/svg">
<path d="M68.8886 29.3498C68.6954 28.9806 68.313 28.7492 67.8963 28.7495H8.76787C8.3513 28.7495 7.96933 28.9808 7.77618 29.3498L0.378881 43.4339C0.0909197 43.982 0.301685 44.6598 0.8499 44.9479C1.0107 45.0324 1.18959 45.0765 1.37121 45.0765H7.64933V69.8046C7.64965 70.4236 8.15142 70.9254 8.77043 70.9257H67.8956C68.5148 70.9257 69.0167 70.4238 69.0167 69.8046V45.0765H75.2948C75.914 45.0765 76.4159 44.5744 76.4158 43.9552C76.4158 43.7736 76.3716 43.5947 76.2872 43.4339L68.8886 29.3498ZM9.44565 30.9917H36.473L30.2589 42.8343H3.22454L9.44565 30.9917ZM9.88704 45.0765H30.9316C31.3485 45.0765 31.7309 44.8454 31.9245 44.4762L37.2084 34.4184V68.6874H9.88704V45.0765ZM66.7745 68.6854H39.4519V34.4165L44.737 44.4762C44.9303 44.8454 45.3126 45.0766 45.7294 45.0765H66.7745V68.6854ZM46.4027 42.8343L40.1886 30.9917H67.2191L73.437 42.8343H46.4027Z" fill="#4295E4" stroke="#4295E4" stroke-width="0.5"/>
<path d="M38.3306 25.251C45.2344 25.251 50.8311 19.6544 50.8311 12.7505C50.8311 5.84666 45.2344 0.25 38.3306 0.25C31.4267 0.25 25.8301 5.84666 25.8301 12.7505V12.7512C25.8379 19.6516 31.4301 25.2437 38.3306 25.251ZM38.3306 2.49219C43.9961 2.49219 48.5889 7.08499 48.5889 12.7505C48.5889 18.416 43.9961 23.0088 38.3306 23.0088C32.6654 23.0088 28.0726 18.4164 28.0723 12.7512C28.0787 7.08819 32.6676 2.49891 38.3306 2.49219Z" fill="#4295E4" stroke="#4295E4" stroke-width="0.5"/>
<path d="M39.4703 15.8723H34.4229C33.8037 15.8723 33.3018 16.3742 33.3018 16.9934C33.3018 17.6126 33.8037 18.1145 34.4229 18.1145H39.4678C42.0203 18.0844 44.0652 15.9908 44.0351 13.4382C44.0055 10.9281 41.9779 8.90038 39.4678 8.87091H37.1295L37.9085 8.09191C38.3544 7.66237 38.3677 6.95272 37.9381 6.50668C37.5086 6.06081 36.7989 6.04751 36.3529 6.47705C36.3436 6.48602 36.3345 6.49515 36.3253 6.50444L33.6347 9.19506C33.1969 9.63229 33.1964 10.3418 33.6338 10.7796C33.6341 10.78 33.6344 10.7803 33.6347 10.7806L36.3253 13.4712C36.7632 13.9091 37.473 13.9091 37.9109 13.4712C38.3488 13.0334 38.3488 12.3236 37.9109 11.8857L37.1313 11.106H39.4702C40.7844 11.1277 41.8323 12.2105 41.8107 13.5247C41.7897 14.8085 40.754 15.8443 39.4702 15.8652L39.4703 15.8723Z" fill="#4295E4" stroke="#4295E4" stroke-width="0.5"/>
</svg>
