<svg width="42" height="39" viewBox="0 0 42 39" fill="none" xmlns="http://www.w3.org/2000/svg">
<path d="M41.6409 22.2621C41.6409 20.4463 40.5554 18.8801 38.9997 18.1758C39.2101 17.6567 39.327 17.0901 39.327 16.4965C39.327 14.0239 37.3153 12.0122 34.8427 12.0122H27.878L28.3352 10.6542C29.0575 8.51004 28.8849 6.22142 27.8495 4.2097C26.8139 2.19799 25.0515 0.727759 22.887 0.069679C22.0717 -0.178402 21.2051 0.25578 20.915 1.05704L18.4635 7.83258C17.8271 9.59157 16.5718 11.053 14.9289 11.9476L12.9819 13.0079C12.335 12.3917 11.4607 12.0122 10.499 12.0122H3.6035C1.61661 12.0122 0 13.6286 0 15.6157V34.6742C0 36.6612 1.61661 38.2777 3.6035 38.2777H10.499C11.6012 38.2779 12.5887 37.7801 13.2503 36.998L13.9821 37.285C15.6619 37.9439 17.4288 38.278 19.2336 38.278H32.8324C35.305 38.278 37.3167 36.2663 37.3167 33.7937C37.3167 33.1894 37.196 32.6131 36.9783 32.0866C38.5009 31.3689 39.5576 29.8199 39.5576 28.028C39.5576 27.399 39.427 26.8001 39.192 26.2562C40.644 25.5128 41.6409 24.0022 41.6409 22.2621ZM10.8995 34.6742C10.8995 34.8949 10.72 35.0746 10.4992 35.0746H3.60366C3.38281 35.0746 3.20327 34.895 3.20327 34.6742V15.6157C3.20327 15.395 3.38281 15.2153 3.60366 15.2153H10.4992C10.6619 15.2153 10.8015 15.3131 10.8642 15.4528C10.8728 15.4949 10.8837 15.5367 10.8959 15.5784C10.897 15.5908 10.8995 15.6029 10.8995 15.6157V34.6742ZM37.1566 23.5437H29.9494C29.065 23.5437 28.3479 24.2607 28.3479 25.1452C28.3479 26.0298 29.065 26.7468 29.9494 26.7468H35.0731C35.7796 26.7468 36.3544 27.3216 36.3544 28.028C36.3544 28.7345 35.7796 29.3093 35.0731 29.3093H29.9494C29.065 29.3093 28.3479 30.0263 28.3479 30.9109C28.3479 31.7954 29.065 32.5124 29.9494 32.5124H32.8322C33.5387 32.5124 34.1135 33.0872 34.1135 33.7937C34.1135 34.5001 33.5387 35.0749 32.8322 35.0749H31.6471H19.2334C17.8306 35.0749 16.4573 34.8151 15.1515 34.3031L14.1025 33.8917V16.0449L16.4608 14.7608C18.7917 13.4915 20.5728 11.4181 21.4758 8.92244L23.3332 3.78881C24.0315 4.26063 24.6041 4.90318 25.0017 5.67577C25.6374 6.91057 25.7433 8.31545 25.2999 9.63177L24.131 13.1025C23.9663 13.5913 24.0472 14.1293 24.348 14.5481C24.6488 14.9669 25.1329 15.2153 25.6486 15.2153H34.8427C35.5491 15.2153 36.1239 15.7901 36.1239 16.4965C36.1239 17.203 35.5491 17.7778 34.8427 17.7778H29.9494C29.065 17.7778 28.3479 18.4948 28.3479 19.3793C28.3479 20.2639 29.065 20.9809 29.9494 20.9809L37.1566 20.981C37.863 20.981 38.4378 21.5558 38.4378 22.2623C38.4378 22.9687 37.863 23.5437 37.1566 23.5437Z" fill="#4295E4"/>
</svg>
